<svg width="23" height="20" viewBox="0 0 23 20" fill="none" xmlns="http://www.w3.org/2000/svg">
<path d="M20.125 11.4531C20.884 11.442 21.6088 11.1368 22.1456 10.6022C22.6824 10.0676 22.9889 9.34578 23 8.58984V2.86329H15.8125V1.73945C15.8116 1.51009 15.7653 1.28315 15.6763 1.0716C15.5873 0.860055 15.4573 0.668038 15.2938 0.506516C15.1302 0.344993 14.9364 0.217129 14.7232 0.130223C14.5101 0.0433178 14.2819 -0.000927226 14.0516 1.47297e-05H8.94844C8.71813 -0.000927226 8.48989 0.0433178 8.27676 0.130223C8.06362 0.217129 7.86976 0.344993 7.70624 0.506516C7.54272 0.668038 7.41275 0.860055 7.32374 1.0716C7.23474 1.28315 7.18844 1.51009 7.1875 1.73945V2.86329H0V8.58984C0.0113074 9.35192 0.322753 10.0791 0.867236 10.6146C1.41172 11.1502 2.14566 11.4513 2.91094 11.4531H5.78594V9.96422H7.22344V14.0444C7.22344 14.2342 7.14771 14.4163 7.01292 14.5505C6.87813 14.6848 6.69531 14.7602 6.50469 14.7602C6.31406 14.7602 6.13125 14.6848 5.99645 14.5505C5.86166 14.4163 5.78594 14.2342 5.78594 14.0444V12.9277H2.91812C1.83923 12.926 0.799379 12.5255 0 11.8039V18.5684C0 18.9481 0.15145 19.3122 0.421034 19.5807C0.690617 19.8492 1.05625 20 1.4375 20H21.5625C21.9437 20 22.3094 19.8492 22.579 19.5807C22.8486 19.3122 23 18.9481 23 18.5684V11.8039C22.2028 12.5291 21.1615 12.9301 20.0819 12.9277H18.6875V11.4531H20.125ZM8.625 1.73945C8.6287 1.65653 8.66441 1.57823 8.72467 1.52088C8.78493 1.46354 8.86509 1.43157 8.94844 1.43165H14.0516C14.1349 1.43157 14.2151 1.46354 14.2753 1.52088C14.3356 1.57823 14.3713 1.65653 14.375 1.73945V2.86329H8.625V1.73945ZM17.25 14.0444C17.25 14.2342 17.1743 14.4163 17.0395 14.5505C16.9047 14.6848 16.7219 14.7602 16.5312 14.7602C16.3406 14.7602 16.1578 14.6848 16.023 14.5505C15.8882 14.4163 15.8125 14.2342 15.8125 14.0444V12.9277H8.625V11.4531H15.8125V9.96422H17.25V14.0444Z" fill="#001731"/>
</svg>
